<svg xmlns="http://www.w3.org/2000/svg" viewBox="0 0 241.97 48.45"><title>Untitled-1 [Recovered]</title><g id="Layer_2" data-name="Layer 2"><path d="M31.33,107.77a1.77,1.77,0,0,1,.15,1.13,1.45,1.45,0,0,1,.71,1.25,3.18,3.18,0,0,1-1.42,2.25,3.36,3.36,0,0,1,.18,1.07,3,3,0,0,1-.42,1.54,2.47,2.47,0,0,1-1,1,3.59,3.59,0,0,1-1.25,2.85A2,2,0,0,1,27.09,120a4.16,4.16,0,0,1-1.84.5,4.33,4.33,0,0,1-1.48.68,2.83,2.83,0,0,1-1.6.15,2.31,2.31,0,0,1-2,.95,2.36,2.36,0,0,1-.65-.06,2.14,2.14,0,0,1-.95.18,4,4,0,0,1-1.42-.3,8.25,8.25,0,0,1-3.85.59,5.06,5.06,0,0,1,.24,1.19,1.82,1.82,0,0,1-.47,1.25,4.59,4.59,0,0,1,.65,2.79,6.82,6.82,0,0,1-.3,2.31,4,4,0,0,1,.71,2.43,5.5,5.5,0,0,1-.59,2.49,3.39,3.39,0,0,1,.53,1.36,9.35,9.35,0,0,1,.18,1.84,3.45,3.45,0,0,1-.36,1.9,9.77,9.77,0,0,1,.12,1.25Q14,144,11.32,144a2,2,0,0,1-1.87-1.28,6.74,6.74,0,0,1-.62-3,6.08,6.08,0,0,1,.47-2.67,5.3,5.3,0,0,1-.59-2.61,13.16,13.16,0,0,1,.12-1.6,5.32,5.32,0,0,1-.53-2.91,5,5,0,0,1,.36-2.37,6.34,6.34,0,0,1-.3-2.19,4.68,4.68,0,0,1,.3-2,3.22,3.22,0,0,1-.3-1.19,2.23,2.23,0,0,1,.18-.89,3.65,3.65,0,0,1-.53-2,2.57,2.57,0,0,1,.24-1.25A2.73,2.73,0,0,1,8,117a2.13,2.13,0,0,1,.24-1.07,2.85,2.85,0,0,1-.59-1.42,2.14,2.14,0,0,1,.47-1.25,3,3,0,0,1-.36-1.3,1.91,1.91,0,0,1,.71-1.54,2.82,2.82,0,0,1-.95-2.14,7.21,7.21,0,0,1,.12-.95,2,2,0,0,1-.71-1.78,3.92,3.92,0,0,1,.42-1.78q.41-.83,1-.83a1.34,1.34,0,0,1,.74-1.1,3.14,3.14,0,0,1,1.57-.39,3.47,3.47,0,0,1,1.51.33,1.31,1.31,0,0,1,.8.86,4.93,4.93,0,0,1,1.84-.53.69.69,0,0,1,.47.12l.83-.27a4,4,0,0,1,1.19-.21,2.93,2.93,0,0,1,1.54.47,2.67,2.67,0,0,1,1-.47,5.16,5.16,0,0,1,1.36-.18,2.73,2.73,0,0,1,1.07.18,2.84,2.84,0,0,1,.65-.06,3.76,3.76,0,0,1,1.78.47,4.34,4.34,0,0,1,1.36,1.07,2.6,2.6,0,0,1,1.69.39,3.28,3.28,0,0,1,1,1.63,3.32,3.32,0,0,1,1.27.71q.62.53.44,1.07A1.33,1.33,0,0,1,31.33,107.77Zm-17.41,10a2,2,0,0,1,1.3.3,2.3,2.3,0,0,1,1.6-.42,2.06,2.06,0,0,1,1.54.42,2.14,2.14,0,0,1,1.25-.3,1.62,1.62,0,0,1,.83.18,1.91,1.91,0,0,1,1.42-.71,2.85,2.85,0,0,1,.65.06q.12-.47,1.3-1.1a2.73,2.73,0,0,1,1.84-.44,3.19,3.19,0,0,1,.36-1.25,2.44,2.44,0,0,1,.71-1,1.37,1.37,0,0,1-.24-.95,7.59,7.59,0,0,1,.27-1.87,3.19,3.19,0,0,1,.56-1.33q-2.37-1.3-2.43-2.43A6.67,6.67,0,0,1,22.7,106a6.54,6.54,0,0,1-2.79.83,8.14,8.14,0,0,1-1.84-.3,4.59,4.59,0,0,1-2.55.77,2.41,2.41,0,0,1-1.36-.36q-.06.18-.8.42a2.45,2.45,0,0,1-1,.18,5.69,5.69,0,0,0,.42,1.48,4.79,4.79,0,0,1,.42,1.78,2.44,2.44,0,0,1-.53,1.48,3.89,3.89,0,0,1,.24,1.6,2.91,2.91,0,0,1-.24,1.36,2.09,2.09,0,0,1,.53,1.54,2.42,2.42,0,0,1-.42,1.3A1.86,1.86,0,0,1,13.93,117.79Z" transform="translate(-6.93 -101.42)"/><path d="M49.93,144a4.12,4.12,0,0,1-1.84-.36,8.86,8.86,0,0,1-1.9.24,4.14,4.14,0,0,1-3.32-1.19,2.79,2.79,0,0,1-.65.06,2.26,2.26,0,0,1-2.08-1.25,2.37,2.37,0,0,1-1.51-.62q-.92-.68-.8-1.33a2.65,2.65,0,0,1-1.57-1.16,3.35,3.35,0,0,1-.56-2.11,1.81,1.81,0,0,1-1-.95,3.53,3.53,0,0,1-.36-1.6,2.4,2.4,0,0,1,.3-1.36,4.16,4.16,0,0,1-.65-2.31,3,3,0,0,1,.83-2.19,1.64,1.64,0,0,1-.65-1.42,2.63,2.63,0,0,1,.3-1.19,1.76,1.76,0,0,1,.77-.83,2.83,2.83,0,0,1,.21-1.57,2.31,2.31,0,0,1,.92-1.1,1,1,0,0,1-.12-.53,1.81,1.81,0,0,1,.39-1.07,1.55,1.55,0,0,1,.86-.65,1.52,1.52,0,0,1-.06-.47,2.92,2.92,0,0,1,.95-2.17,2.26,2.26,0,0,1,1.84-.8,1.69,1.69,0,0,1,.74-1.39,3.1,3.1,0,0,1,1.93-.56,4.51,4.51,0,0,1,.83.06,3.24,3.24,0,0,1,1.42-1.45,4.21,4.21,0,0,1,2.08-.56,2.21,2.21,0,0,1,1.19.3,3.08,3.08,0,0,1,2.08-.71,3.48,3.48,0,0,1,1.81.47,2,2,0,0,1,1,1.31,3.78,3.78,0,0,1,2,.68,2.59,2.59,0,0,1,1.25,1.39,6.36,6.36,0,0,1,2.76,1.81,4.11,4.11,0,0,1,1.33,2.82,3.27,3.27,0,0,1-.12.71q2.55.53,2.31,5.16a3.63,3.63,0,0,1,.53,1.9,4.33,4.33,0,0,1-.77,2.37,3.19,3.19,0,0,1,.18,1,3.27,3.27,0,0,1-.3,1.36,2.55,2.55,0,0,1-.77,1,2.49,2.49,0,0,1-.33,1.54,11.14,11.14,0,0,1-1.39,1.6,3.2,3.2,0,0,1,.06.71,2.3,2.3,0,0,1-2,2.31,2.42,2.42,0,0,1-1,1.54,3.15,3.15,0,0,1-1.93.59,2.83,2.83,0,0,1-3,1.25A3,3,0,0,1,49.93,144Zm-1.78-5.28c.55,0,.85.08.89.24a3.21,3.21,0,0,1,1.19-.83,2.71,2.71,0,0,1,1.3-.24,3.06,3.06,0,0,1,2.19-1,2.1,2.1,0,0,1,.59.06,1.48,1.48,0,0,1,.3-1,1.8,1.8,0,0,1,.83-.68,2.31,2.31,0,0,1,.39-1.33,2.56,2.56,0,0,1,1-.86,3.37,3.37,0,0,1,.47-1.9,2.68,2.68,0,0,1-.18-.95,2.93,2.93,0,0,1,.3-1.28,2.85,2.85,0,0,1,.83-1,1.69,1.69,0,0,1-.59-1.3,2.8,2.8,0,0,1,.42-1.42,4.3,4.3,0,0,1-1.57-1.39,5.65,5.65,0,0,1-.39-2.52,1.32,1.32,0,0,1-1.1-.59,2.83,2.83,0,0,1-.68-1.48,2,2,0,0,1-1.57-.39,1.67,1.67,0,0,1-.92-1.45,2.49,2.49,0,0,1-1.13.24,2.54,2.54,0,0,1-2-.89,4.63,4.63,0,0,1-1.69,1,3.65,3.65,0,0,1-1.81.27,2.44,2.44,0,0,1-1,1.39,5.43,5.43,0,0,1-1.75,1,1.83,1.83,0,0,1,.18.83,2.64,2.64,0,0,1-.3,1.19,2.92,2.92,0,0,1-.83,1,2.76,2.76,0,0,1-.39,1.6,2.36,2.36,0,0,1-1.22,1.07,3.34,3.34,0,0,1,.12.77,1.92,1.92,0,0,1-.42,1.31,2.09,2.09,0,0,1,.18.83,2.29,2.29,0,0,1-.65,1.42,3.3,3.3,0,0,1,1.48,2.91A3.81,3.81,0,0,1,40.2,135a1.17,1.17,0,0,1,.83.36,2.71,2.71,0,0,1,.42.95,2.77,2.77,0,0,1,2.19,1.42,4.4,4.4,0,0,1,1.63.42,2.53,2.53,0,0,1,1.27.95A2.43,2.43,0,0,1,48.15,138.73Z" transform="translate(-6.93 -101.42)"/><path d="M84.21,143.68a5.3,5.3,0,0,1-1.84.33,2.54,2.54,0,0,1-1.66-.42,2.24,2.24,0,0,1-.89.18,2.58,2.58,0,0,1-1.9-.77,3.3,3.3,0,0,1-1.25.3,3.84,3.84,0,0,1-1.87-.5,2.92,2.92,0,0,1-1.27-1.22,3.15,3.15,0,0,1-2.22-.68A2.91,2.91,0,0,1,70,139q-1.78-.77-2.43-4.15a1.78,1.78,0,0,1-.53-.89,4.1,4.1,0,0,1-.18-1.19,2.08,2.08,0,0,1,.06-.59,9.17,9.17,0,0,1-1-4.15,5.66,5.66,0,0,1,.83-3.2,4.94,4.94,0,0,1-.12-.89,4.15,4.15,0,0,1,.47-1.93,3.17,3.17,0,0,1,1.19-1.33,2.3,2.3,0,0,1-.12-.83,2.79,2.79,0,0,1,.62-1.75,2.63,2.63,0,0,1,1.22-1,3.21,3.21,0,0,1,1.16-1.57,2.76,2.76,0,0,1,1.93-.68q1.19-1.78,2.37-1.6a2.86,2.86,0,0,1,1.45-1,4.43,4.43,0,0,1,1.69-.24,2.23,2.23,0,0,1,1.3-.42,3.16,3.16,0,0,1,1.42.36,2.13,2.13,0,0,1,1.3-.36,3.54,3.54,0,0,1,1.13.18,1.47,1.47,0,0,1,.71.42,1.3,1.3,0,0,1,1,.21,1.33,1.33,0,0,1,.65.8,2.63,2.63,0,0,1,1.75.62A4.29,4.29,0,0,1,89,115.27a2.36,2.36,0,0,1,.33,1.22A2.74,2.74,0,0,1,90.79,118a4.26,4.26,0,0,1,.42,1.66,2.17,2.17,0,0,1-2.13,2.25,3,3,0,0,1-2-.89,4.13,4.13,0,0,1-1.27-2.19,3.88,3.88,0,0,1-1.48-.56,4.26,4.26,0,0,1-1.13-1,3.81,3.81,0,0,1-.89.06,4.29,4.29,0,0,1-.89-.06,1.65,1.65,0,0,1-1.19.53,2.13,2.13,0,0,1-1.25-.42,2.52,2.52,0,0,1-2.25,1.19,11.93,11.93,0,0,1-1.36,1.63,1.88,1.88,0,0,1-1.6.44,1.82,1.82,0,0,1,.06.53,2.19,2.19,0,0,1-.36,1.25,6.4,6.4,0,0,1-.8,1l-.68.68a5.29,5.29,0,0,1,.3,1.66,8.41,8.41,0,0,1-.83,3.26,3.76,3.76,0,0,1,.5,1.16,5.39,5.39,0,0,1,.21,1.45,2.09,2.09,0,0,1-.06.59,2.49,2.49,0,0,1,.74,1,3.28,3.28,0,0,1,.33,1.36A6.59,6.59,0,0,1,75.58,136a2.42,2.42,0,0,1,1,1.66,2.2,2.2,0,0,1,1.42-.53,3,3,0,0,1,1.39.36,2.56,2.56,0,0,1,1,.95,3.72,3.72,0,0,1,.71-.06,2.22,2.22,0,0,1,1.54.59,2.86,2.86,0,0,1,1.19-1,2.81,2.81,0,0,1,1.54-.47,2.25,2.25,0,0,1,1-.89,3.07,3.07,0,0,1,1.33-.3,2.41,2.41,0,0,1,.65.06,2.54,2.54,0,0,1,2.08-.95,2.78,2.78,0,0,1,2,.77,2.49,2.49,0,0,1,.83,1.9,2.64,2.64,0,0,1-1.1,2.17,3.89,3.89,0,0,1-2.46.86,3.49,3.49,0,0,1-.77-.06q.47.12-.09.53a6.76,6.76,0,0,1-1.57.8,3.73,3.73,0,0,1-1.6.33A3.22,3.22,0,0,1,84.21,143.68Z" transform="translate(-6.93 -101.42)"/><path d="M130.94,123.78a2.81,2.81,0,0,1-.42,1.42,2.24,2.24,0,0,1,.12.89,9.93,9.93,0,0,1-.18,1.75,5.77,5.77,0,0,1-.42,1.45,2.85,2.85,0,0,1,.47,1.48,2.3,2.3,0,0,1-.36,1.3,2.36,2.36,0,0,1,.3,1,2.67,2.67,0,0,1-.18.95,2.42,2.42,0,0,1,.42,1.42,2.45,2.45,0,0,1-.65,1.72,1.86,1.86,0,0,1,0,1.3,2.37,2.37,0,0,1-.12,3.38,2.32,2.32,0,0,1-.86,1.39,2.43,2.43,0,0,1-1.45.44,2.63,2.63,0,0,1-1.75-.62,2,2,0,0,1-.74-1.63,2.24,2.24,0,0,1,.18-.89,2.29,2.29,0,0,1-.59-1.6,2.32,2.32,0,0,1,.42-1.36,2.69,2.69,0,0,1-.18-.95,2.14,2.14,0,0,1,.18-.95,2.31,2.31,0,0,1-.42-1.36,3.29,3.29,0,0,1,.3-1.25,2.47,2.47,0,0,1-.24-1.13,2.52,2.52,0,0,1,.53-1.54,3.37,3.37,0,0,1-.24-1.36,4.93,4.93,0,0,1,.3-1.78,2.15,2.15,0,0,1-.77.89,3.81,3.81,0,0,1-.74,2.43,4.24,4.24,0,0,1-1.81,1.54,12.78,12.78,0,0,1-.56,1.36,3.74,3.74,0,0,1-.86,1.07,7.82,7.82,0,0,1-.65,2.7,5.49,5.49,0,0,1-1.78,2.28,2.78,2.78,0,0,1-.39,1.66,3.27,3.27,0,0,1-1.22,1.42,1.64,1.64,0,0,1-1,.74,4.77,4.77,0,0,1-1.63.27,4.53,4.53,0,0,1-2.52-.71,2.46,2.46,0,0,1-1.16-2.08,2,2,0,0,1-.92-.71,1.83,1.83,0,0,1-.33-1.07,1.7,1.7,0,0,1,.18-.77,2.65,2.65,0,0,1-1.07-1.16,3.5,3.5,0,0,1-.42-1.63,2.22,2.22,0,0,1,.12-.71,2.13,2.13,0,0,1-.36-1.07,3.26,3.26,0,0,1-1.13-1.07,1.51,1.51,0,0,1-.24-1.13,2.25,2.25,0,0,1-1.13-1.9,3,3,0,0,1,.18-.95,13.52,13.52,0,0,1-.83-1.36,3.76,3.76,0,0,1-.47-1.3v.3a3.94,3.94,0,0,1-.36,1.54,4.89,4.89,0,0,1,.3,1.48,5.44,5.44,0,0,1-.18,1.3A3,3,0,0,1,104,132a2.93,2.93,0,0,1-.83,2.25,2.19,2.19,0,0,1,.59,1,4.41,4.41,0,0,1,.24,1.45,5.32,5.32,0,0,1-.12,1,2.08,2.08,0,0,1,.3,1.13,3,3,0,0,1-.71,1.9,2.09,2.09,0,0,1,.18.83,2.54,2.54,0,0,1-2.49,2.37,2.29,2.29,0,0,1-1.6-.59,2.73,2.73,0,0,1-.74-1.13,4.36,4.36,0,0,1-.27-1.54,2.73,2.73,0,0,1,.59-1.9,3.3,3.3,0,0,1-.36-1.6,2.71,2.71,0,0,1,.36-1.66,3.3,3.3,0,0,1-.65-2.19,2.32,2.32,0,0,1,.3-1.25A3.76,3.76,0,0,1,98.5,131a2.52,2.52,0,0,1,.3-1.13,3.69,3.69,0,0,1-.42-2,4.84,4.84,0,0,1,.71-2.91,2.73,2.73,0,0,1-.24-1.13,1.77,1.77,0,0,1,.36-1.19,1.75,1.75,0,0,1-.24-.89,2.6,2.6,0,0,1,.24-1.07,5.17,5.17,0,0,1-.59-2.73,3.56,3.56,0,0,1,1-3,2.23,2.23,0,0,1,2.25-1.6,3.14,3.14,0,0,1,2,.71,3.49,3.49,0,0,1,1.19,1.42,4.45,4.45,0,0,1,.42,1.9,4.58,4.58,0,0,1,1.84,2.19,8,8,0,0,1,.59,3.08,1.88,1.88,0,0,1,.8.86,2.81,2.81,0,0,1,.27,1.22,2.43,2.43,0,0,1-.06.65,6.57,6.57,0,0,1,1.07,1.33,2.54,2.54,0,0,1,.36,1.27,3.27,3.27,0,0,1-.12.71,2.05,2.05,0,0,1,.53,1.42,3.76,3.76,0,0,1,1.42,1.93,6.1,6.1,0,0,1,.53,2.58,3.43,3.43,0,0,1,.8.86,3.15,3.15,0,0,1,.5,1.16,11.63,11.63,0,0,1,1.28-3.26,6.1,6.1,0,0,1,1.87-2.31,7.48,7.48,0,0,1,.92-2,6.62,6.62,0,0,1,1.63-1.6,2.78,2.78,0,0,1-.06-.65,2.51,2.51,0,0,1,.77-1.84,2.3,2.3,0,0,1,.15-1.3,2.38,2.38,0,0,1,.86-1.07,2.16,2.16,0,0,1,1.66-2.49,2.66,2.66,0,0,1,1.07-2.25,1.54,1.54,0,0,1-.06-.47,2.45,2.45,0,0,1,.62-1.66,2.42,2.42,0,0,1,1.57-.83,2.4,2.4,0,0,1,1.54-.65,2.74,2.74,0,0,1,2.14,1.16,3.82,3.82,0,0,1,.95,2.46,2.32,2.32,0,0,1-.77,1.78,6.89,6.89,0,0,0,.24.92,2.32,2.32,0,0,1,.06,1.63A2.38,2.38,0,0,1,130.94,123.78Z" transform="translate(-6.93 -101.42)"/><path d="M162.4,122.24a5.13,5.13,0,0,1,.56,2.31,2.68,2.68,0,0,1-1.78,2.73,3.52,3.52,0,0,1-1.28,1.3,3.37,3.37,0,0,1-1.75.47,4.05,4.05,0,0,1-1.6-.36,5.21,5.21,0,0,1-1.3.53,6,6,0,0,1-1.66.24,2.57,2.57,0,0,1-2-.59,3,3,0,0,1-1.9.48A4.05,4.05,0,0,1,148,129a4.18,4.18,0,0,1-1.9.42,4,4,0,0,1-1.66-.3,3.84,3.84,0,0,1-2.43.53,3.48,3.48,0,0,1-1.36-.18,3.5,3.5,0,0,1-.47,2.55,2.66,2.66,0,0,1,.89,2.43s.26.2.65.47a2.26,2.26,0,0,1,.83,1.36,1.74,1.74,0,0,1,1.22.53,2.17,2.17,0,0,1,.68,1.07,1.37,1.37,0,0,1,.95-.24,2.4,2.4,0,0,1,.95.18c.28.12.43.26.47.42a1.88,1.88,0,0,1,.95-.24,2.2,2.2,0,0,1,1.42.53,5,5,0,0,1,.89-.12,2.56,2.56,0,0,1,1,.18,2,2,0,0,1,.95-.92,2.76,2.76,0,0,1,1.6-.39,3.28,3.28,0,0,1,1.3-.95,4.18,4.18,0,0,1,1.66-.36,2.44,2.44,0,0,1,2.31,1.3,2.51,2.51,0,0,1,.24,1.13,2.55,2.55,0,0,1-1.3,2.25l-1,.62a8.39,8.39,0,0,1-1.3.68,2.91,2.91,0,0,1-1.07.24,3,3,0,0,1-2.43,1.07,3.6,3.6,0,0,1-1.07-.12,3.17,3.17,0,0,1-2.08.59,2.41,2.41,0,0,1-1.72-.47,2.09,2.09,0,0,1-.83.18,2.36,2.36,0,0,1-1.54-.59q-3,.18-4.09-1.9a2.86,2.86,0,0,1-1.87-1,3.64,3.64,0,0,1-1.16-1.81,2.69,2.69,0,0,1-1.72-2,3.31,3.31,0,0,1,0-.89c-.16,0-.29-.21-.39-.5a2.88,2.88,0,0,1-.15-.92,1.23,1.23,0,0,1,.06-.47,8.31,8.31,0,0,1-.47-2.61,4.71,4.71,0,0,1,.47-2.14,2.92,2.92,0,0,1-.36-1.42,4.7,4.7,0,0,1,.42-1.9,3.56,3.56,0,0,1,.77-1.25,1.6,1.6,0,0,1,.18-1,5.26,5.26,0,0,1,.8-1.36,1.94,1.94,0,0,1,1-.74l-.06-.65a2.81,2.81,0,0,1,2.49-2.91,2.6,2.6,0,0,1,1.19-2,2.89,2.89,0,0,1,2.08-.83q.12-.65,1.16-1a2.54,2.54,0,0,1,1.57-.21,2.77,2.77,0,0,1,1.9-1.07,2,2,0,0,1,1.54-.59,3.37,3.37,0,0,1,.77.12l.53-.06a2.57,2.57,0,0,1,1.22.27q.5.27.45.62a5.77,5.77,0,0,1,2.19.59,2.14,2.14,0,0,1,1.07,1.72,3.1,3.1,0,0,1,2,.39,5.47,5.47,0,0,1,2,1.72,4.4,4.4,0,0,1,.86,2.7,7.24,7.24,0,0,1-.12,1.07A2.92,2.92,0,0,1,162.4,122.24Zm-7,1.6a6.69,6.69,0,0,1,2,.24,2.13,2.13,0,0,1-.86-1,3.48,3.48,0,0,1-.39-1.51,1.18,1.18,0,0,1,.18-.71,1.81,1.81,0,0,1-1.39-.44,6.28,6.28,0,0,1-1-1.16q-.45-.65-.68-.95-.3.18-1.22-.33t-1-1a2,2,0,0,1-1,.5,3.16,3.16,0,0,1-1.19.15,1.86,1.86,0,0,1-.83.59,2.3,2.3,0,0,1-1.36.18,8.78,8.78,0,0,1-1.25,1.84,4,4,0,0,1-1.66,1.07,4.92,4.92,0,0,1-.74,1.84,6.17,6.17,0,0,1-1.28,1.54l.24.06a3.81,3.81,0,0,1,2.25-.59,6.72,6.72,0,0,1,1.57.18,2.8,2.8,0,0,1,1,.42,5.81,5.81,0,0,1,3.14-.89,3.78,3.78,0,0,1,2.49.89Q153.06,123.84,155.37,123.84Z" transform="translate(-6.93 -101.42)"/><path d="M199.26,123.78a2.81,2.81,0,0,1-.42,1.42,2.24,2.24,0,0,1,.12.89,9.93,9.93,0,0,1-.18,1.75,5.77,5.77,0,0,1-.42,1.45,2.85,2.85,0,0,1,.47,1.48,2.3,2.3,0,0,1-.36,1.3,2.36,2.36,0,0,1,.3,1,2.67,2.67,0,0,1-.18.95,2.42,2.42,0,0,1,.42,1.42,2.45,2.45,0,0,1-.65,1.72,1.86,1.86,0,0,1,0,1.3,2.37,2.37,0,0,1-.12,3.38,2.32,2.32,0,0,1-.86,1.39,2.43,2.43,0,0,1-1.45.44,2.63,2.63,0,0,1-1.75-.62,2,2,0,0,1-.74-1.63,2.24,2.24,0,0,1,.18-.89A2.29,2.29,0,0,1,193,139a2.32,2.32,0,0,1,.42-1.36,2.67,2.67,0,0,1-.18-.95,2.13,2.13,0,0,1,.18-.95,2.31,2.31,0,0,1-.42-1.36,3.3,3.3,0,0,1,.3-1.25,2.48,2.48,0,0,1-.24-1.13,2.52,2.52,0,0,1,.53-1.54,3.37,3.37,0,0,1-.24-1.36,4.93,4.93,0,0,1,.3-1.78,2.15,2.15,0,0,1-.77.89,3.8,3.8,0,0,1-.74,2.43,4.24,4.24,0,0,1-1.81,1.54,12.78,12.78,0,0,1-.56,1.36,3.72,3.72,0,0,1-.86,1.07,7.77,7.77,0,0,1-.65,2.7,5.48,5.48,0,0,1-1.78,2.28,2.78,2.78,0,0,1-.38,1.66,3.28,3.28,0,0,1-1.22,1.42,1.65,1.65,0,0,1-1,.74,4.77,4.77,0,0,1-1.63.27,4.53,4.53,0,0,1-2.52-.71,2.46,2.46,0,0,1-1.16-2.08,2,2,0,0,1-.92-.71,1.83,1.83,0,0,1-.33-1.07,1.71,1.71,0,0,1,.18-.77,2.65,2.65,0,0,1-1.07-1.16,3.5,3.5,0,0,1-.42-1.63,2.24,2.24,0,0,1,.12-.71,2.13,2.13,0,0,1-.36-1.07,3.26,3.26,0,0,1-1.13-1.07,1.51,1.51,0,0,1-.24-1.13,2.25,2.25,0,0,1-1.13-1.9,3.06,3.06,0,0,1,.18-.95,13.71,13.71,0,0,1-.83-1.36,3.75,3.75,0,0,1-.47-1.3v.3a3.93,3.93,0,0,1-.36,1.54,4.89,4.89,0,0,1,.3,1.48,5.39,5.39,0,0,1-.18,1.3,3,3,0,0,1,.3,1.36,2.93,2.93,0,0,1-.83,2.25,2.19,2.19,0,0,1,.59,1,4.42,4.42,0,0,1,.24,1.45,5.28,5.28,0,0,1-.12,1,2.08,2.08,0,0,1,.3,1.13,3,3,0,0,1-.71,1.9,2.09,2.09,0,0,1,.18.83,2.54,2.54,0,0,1-2.49,2.37,2.29,2.29,0,0,1-1.6-.59,2.73,2.73,0,0,1-.74-1.13,4.36,4.36,0,0,1-.27-1.54,2.73,2.73,0,0,1,.59-1.9,3.3,3.3,0,0,1-.36-1.6,2.71,2.71,0,0,1,.36-1.66,3.3,3.3,0,0,1-.65-2.19,2.32,2.32,0,0,1,.3-1.25,3.73,3.73,0,0,1-.24-1.07,2.52,2.52,0,0,1,.3-1.13,3.7,3.7,0,0,1-.42-2,4.84,4.84,0,0,1,.71-2.91,2.74,2.74,0,0,1-.24-1.13,1.78,1.78,0,0,1,.36-1.19,1.76,1.76,0,0,1-.24-.89,2.61,2.61,0,0,1,.24-1.07,5.17,5.17,0,0,1-.59-2.73,3.56,3.56,0,0,1,1-3,2.22,2.22,0,0,1,2.25-1.6,3.14,3.14,0,0,1,2,.71,3.49,3.49,0,0,1,1.19,1.42,4.44,4.44,0,0,1,.42,1.9,4.58,4.58,0,0,1,1.84,2.19,8,8,0,0,1,.59,3.08,1.88,1.88,0,0,1,.8.86,2.81,2.81,0,0,1,.27,1.22,2.4,2.4,0,0,1-.06.65,6.52,6.52,0,0,1,1.07,1.33,2.54,2.54,0,0,1,.36,1.27,3.24,3.24,0,0,1-.12.71,2.05,2.05,0,0,1,.53,1.42,3.77,3.77,0,0,1,1.42,1.93,6.11,6.11,0,0,1,.53,2.58,3.43,3.43,0,0,1,.8.86,3.14,3.14,0,0,1,.5,1.16,11.62,11.62,0,0,1,1.28-3.26,6.11,6.11,0,0,1,1.87-2.31,7.5,7.5,0,0,1,.92-2,6.66,6.66,0,0,1,1.63-1.6A2.84,2.84,0,0,1,188,127a2.51,2.51,0,0,1,.77-1.84,2.3,2.3,0,0,1,.15-1.3,2.38,2.38,0,0,1,.86-1.07,2.16,2.16,0,0,1,1.66-2.49A2.66,2.66,0,0,1,192.5,118a1.53,1.53,0,0,1-.06-.47,2.45,2.45,0,0,1,.62-1.66,20.14,20.14,0,0,1,3.11-1.48,2.74,2.74,0,0,1,2.13,1.16,3.82,3.82,0,0,1,.95,2.46,2.32,2.32,0,0,1-.77,1.78,6.89,6.89,0,0,0,.24.92,2.32,2.32,0,0,1,.06,1.63A2.38,2.38,0,0,1,199.26,123.78Z" transform="translate(-6.93 -101.42)"/><path d="M248.72,124.73a3.22,3.22,0,0,1-.3,1.6,2.29,2.29,0,0,1,.47,1.36,4.56,4.56,0,0,1-1.13,2.61,2.76,2.76,0,0,1,.24.95,2.33,2.33,0,0,1-1.07,2,1.68,1.68,0,0,1,.36,1.13,3.07,3.07,0,0,1-.3,1.33,2,2,0,0,1-.83.92,6.43,6.43,0,0,1-.27,2,7,7,0,0,1-.86,1.72,4.1,4.1,0,0,1-1,1.63,4.41,4.41,0,0,1-1.6,1.22,2.39,2.39,0,0,1-.74,1.42,2.3,2.3,0,0,1-1.45.65,2.68,2.68,0,0,1-1.36,1.19,2.28,2.28,0,0,1-1.13,1.6,5.81,5.81,0,0,1-2.31.47,5.51,5.51,0,0,1-2.67.71,2.83,2.83,0,0,1-.65-.06,3.11,3.11,0,0,1-2.37.77,5.83,5.83,0,0,1-1.57-.21,3,3,0,0,1-1.16-.56,2.52,2.52,0,0,1-1.54.53,2.28,2.28,0,0,1-1.48-.53,1.71,1.71,0,0,1-.77.18,2.17,2.17,0,0,1-2.08-1.3,3.86,3.86,0,0,1-2.79-.83,1.81,1.81,0,0,1-.53.06,2,2,0,0,1-1.25-.42,3.37,3.37,0,0,1-2.16-.89,3.5,3.5,0,0,1-1.1-2.25,7.62,7.62,0,0,1-2.73-2.11,6.43,6.43,0,0,1-1.3-2.76,3.25,3.25,0,0,1-1.39-1.75,7,7,0,0,1-.56-2.76,4.11,4.11,0,0,1,.42-2,5.51,5.51,0,0,1-.53-1.19,4.12,4.12,0,0,1-.24-1.3,1.79,1.79,0,0,1,.06-.54,2.91,2.91,0,0,1-.71-2,2.45,2.45,0,0,1,.3-1.3,5.07,5.07,0,0,1-.24-1.3,2,2,0,0,1,.83-1.84,3,3,0,0,1-.42-1.54,4.06,4.06,0,0,1,.36-1.72,2.71,2.71,0,0,1,1-1.19,4.71,4.71,0,0,1-.24-1.6,5.84,5.84,0,0,1,.38-2.16,1.71,1.71,0,0,1,1-1.16,3.29,3.29,0,0,1,3.26-3.32,3,3,0,0,1,.39-1.72,2.34,2.34,0,0,1,1.28-1.07q.06-.77,1.39-1.54a4.92,4.92,0,0,1,2.4-.77,2,2,0,0,1,.59.12,5,5,0,0,1,1.72-.86,6.77,6.77,0,0,1,2-.33,2.6,2.6,0,0,1,1.36.3,3.58,3.58,0,0,1,1.84-1.13,9.16,9.16,0,0,1,2.79-.42,7,7,0,0,1,2.22.33,2.87,2.87,0,0,1,1.39.86,3.13,3.13,0,0,1,1.19.18,2.51,2.51,0,0,1,1.36-.42,24,24,0,0,0,3.44,1.36,3,3,0,0,1,2.22,1,3.25,3.25,0,0,1,1.1,2.37,2.81,2.81,0,0,1,2.28.8,4,4,0,0,1,1,2.28,2.58,2.58,0,0,1,1.6.95,2.81,2.81,0,0,1,.83,2,2.6,2.6,0,0,1-.42,1.42,1.84,1.84,0,0,1,.86.83,2.67,2.67,0,0,1,.33,1.31,3,3,0,0,1-.71,1.9,2.29,2.29,0,0,1,.83,1.16,4.81,4.81,0,0,1,.3,1.69,3.17,3.17,0,0,1-.06.71A2.25,2.25,0,0,1,248.72,124.73Zm-14.23,19a2.42,2.42,0,0,1,1.84-1.78,2.22,2.22,0,0,1,1.84-1.36,2.32,2.32,0,0,1,1.72-1.48,4.17,4.17,0,0,1,1.48-1.9,3.12,3.12,0,0,1-.06-.71,3.63,3.63,0,0,1,.89-2.67,6.11,6.11,0,0,1-.18-1.48,2.66,2.66,0,0,1,.95-2.19,2.48,2.48,0,0,1,.59-2.08,2.36,2.36,0,0,1-.59-1.54,2,2,0,0,1,.3-1.07,2.63,2.63,0,0,1-.47-1.48,1.69,1.69,0,0,1,.47-1.25,2.82,2.82,0,0,1-.95-1.25,4.34,4.34,0,0,1-.36-1.72,2.85,2.85,0,0,1,.36-1.48,2.31,2.31,0,0,1-.83-1.84,3.21,3.21,0,0,1,.18-1,4.25,4.25,0,0,1-2.13-2.31,3.39,3.39,0,0,1-1.84-1.16,3.59,3.59,0,0,1-1-1.93,2.1,2.1,0,0,1-2.31-1.07,2,2,0,0,1-1.19.24,8.49,8.49,0,0,1-2.52-.42,3.59,3.59,0,0,1-1.75-.95,3.81,3.81,0,0,1-1.22.44,6.23,6.23,0,0,1-1.39,0,3.24,3.24,0,0,1-2.37,1,2.91,2.91,0,0,1-1.54-.47,1.85,1.85,0,0,1-1.1,1.1,4.37,4.37,0,0,1-1.93.44,3.31,3.31,0,0,1-.77-.12,2.11,2.11,0,0,1-1.07.71,3.91,3.91,0,0,1-1.07,2.37,3.72,3.72,0,0,1-2.31,1.48,2.17,2.17,0,0,1-.15,1.27,2.07,2.07,0,0,1-.86,1l.06,1.3q0,2.43-1.19,3.2a2.33,2.33,0,0,1,.42,1.36,4.08,4.08,0,0,1-1.25,2.73,3.68,3.68,0,0,1,.12.59l-.06.53a2.05,2.05,0,0,1,.89,1.84,2.08,2.08,0,0,1-.3,1.13,1.79,1.79,0,0,1,.62.89,3.92,3.92,0,0,1,.21,1.3,2.64,2.64,0,0,1-.42,1.54,2,2,0,0,1,.68,1.16,4,4,0,0,1,.15,1.39,2,2,0,0,1,.53.68,5.69,5.69,0,0,1,.3.8,3.26,3.26,0,0,1,.89,1.54,3.76,3.76,0,0,1,2.14,1.13,3.48,3.48,0,0,1,.95,2.08,7.16,7.16,0,0,1,1.07-.12,4.84,4.84,0,0,1,1.6.27,2.9,2.9,0,0,1,1.25.8,2.14,2.14,0,0,1,.59-.06,2.36,2.36,0,0,1,1.9.95,2,2,0,0,1,1.48.36,2.92,2.92,0,0,1,1.6-.42,3.49,3.49,0,0,1,1.22.21,2.34,2.34,0,0,1,.86.5,2.32,2.32,0,0,1,2-1,2.64,2.64,0,0,1,1.3.42l1.6-.47Zm-1.36-5.4a1.53,1.53,0,0,1-.65.77,2.08,2.08,0,0,1-1.13.3,5,5,0,0,1-.83-.12,1.22,1.22,0,0,1-1.13.47,3.18,3.18,0,0,1-.71-.12,1.77,1.77,0,0,1-.89.62,3.56,3.56,0,0,1-1.19.21,3.47,3.47,0,0,1-.83-.12,2.86,2.86,0,0,1-.65.06,2.33,2.33,0,0,1-2.31-1.66,2.48,2.48,0,0,1-1.66-1.6,2.54,2.54,0,0,1-.95-.42,1,1,0,0,1-.47-.71,2.2,2.2,0,0,1-1.13-1,5.91,5.91,0,0,1-.77-1.78,2.32,2.32,0,0,1-.06-1.36,2.31,2.31,0,0,1-.42-1.36v-.24a3.14,3.14,0,0,1-1.25-2.55,4.1,4.1,0,0,1,.47-1.84,3.42,3.42,0,0,1-.47-1.72,1.3,1.3,0,0,1,.18-.77,4.85,4.85,0,0,1-.06-.89,1.81,1.81,0,0,1,.53-1.42,4,4,0,0,1,.45-2.28,3.79,3.79,0,0,1,1.51-1.63,4.37,4.37,0,0,1,1.57-2,3.23,3.23,0,0,1,2.28-.74q.3-.77,2-1.3a11.38,11.38,0,0,1,3.38-.53,2.84,2.84,0,0,1,1.72.36,1.77,1.77,0,0,1,1.07-.24,4,4,0,0,1,1.63.36,2.45,2.45,0,0,1,1.16.95,3.28,3.28,0,0,1,.71-.12,1.91,1.91,0,0,1,1.54.71,2.67,2.67,0,0,1,.47,2,3.35,3.35,0,0,1,1.07,1.57,3.79,3.79,0,0,1,.3,1.87,2.11,2.11,0,0,1,.18.83,2.44,2.44,0,0,1-.71,1.75,2.3,2.3,0,0,1-1.72.74,1.93,1.93,0,0,1-1.9-.92,7.33,7.33,0,0,1-.65-2.52,2.58,2.58,0,0,1-1.19-1.54,2,2,0,0,1-1.1-.24,2.32,2.32,0,0,1-.92-.71,5.87,5.87,0,0,1-2.25.42,5,5,0,0,1-1.6-.24,4,4,0,0,1-1.22,1.6,6.63,6.63,0,0,1-1.87.83,5.89,5.89,0,0,1-1.19,2,3.9,3.9,0,0,1-.53,2.31,2.05,2.05,0,0,1,.53,1.42,2.53,2.53,0,0,1-.3,1.13,2,2,0,0,1,1,.86,2.4,2.4,0,0,1,.39,1.28,2.55,2.55,0,0,1-.18.89,2.38,2.38,0,0,1,.47,1.42,3.34,3.34,0,0,1-.12.77A3.22,3.22,0,0,1,224,133a4.71,4.71,0,0,1,1,1.33,2.61,2.61,0,0,1,1.6,1,2.09,2.09,0,0,1,1.19-.47,2.48,2.48,0,0,1,.74.15,6.13,6.13,0,0,0,.74.21,2.13,2.13,0,0,1,1.36-.53,1.18,1.18,0,0,1,.53.12,3.34,3.34,0,0,1,.59-2,2.49,2.49,0,0,1,1.36-1.22,2.09,2.09,0,0,1,.59-1.6,2.3,2.3,0,0,1,1.6-.77,2.14,2.14,0,0,1,1.48-.59,2.19,2.19,0,0,1,1.72.83,2.76,2.76,0,0,1,.71,1.84,2.11,2.11,0,0,1-.38,1.22,2.39,2.39,0,0,1-1.22.86,2.71,2.71,0,0,1-.62,1.13q-.5.59-1,1.07Q236,137.78,233.13,138.31Z" transform="translate(-6.93 -101.42)"/></g></svg>